# xmcd CD database file
#
# Track frame offsets:
#	182
#	15467
#	43157
#	67710
#
# Disc length: 1105 seconds
#
# Revision: 0
# Processed by: cddbd v1.5PL3 Copyright (c) Steve Scherf et al.
# Submitted via: CDex 1.50
#
DISCID=26044f04
DTITLE=Gogo - Hey Pippi Langstrumpf [CD-Single)
DYEAR=1998
DGENRE=New Age
TTITLE0=Hey Pippi Langstrumpf (single cut)
TTITLE1=Hey Pippi Langstrumpf (maxi version)
TTITLE2=Hey Pippi Langstrumpf (house mix)
TTITLE3=Huuuch
EXTD=YEAR: 1998
EXTT0=
EXTT1=
EXTT2=
EXTT3=
PLAYORDER=
